<?xml version="1.0" encoding="UTF-8" standalone="no"?>
<svg width="100" height="100" viewBox="0 0 100 100" xmlns="http://www.w3.org/2000/svg"><g><path style="fill:#ffcf00" d="M 1,54 C 15.6,33 59,5.6 80,5.5 93,28.6 92.4,56.1 91,79.3 58.8,83.7 20,74.6 1,53.9 Z"/><path style="fill:#109618" d="M 96,75 C 101,85 96,90.5 93.4,92 57,92 33.8,88 3.4,68.4 0.8,66.8 3.7,65.7 5,66 32,75 56.5,79 96,75.5 Z" /><circle style="fill:#ff9800" cx="57" cy="43" r="30.3" /><circle style="fill:#dc3912" cx="61" cy="52" r="18" /><circle style="fill:#ffffff" cx="62" cy="57" r="11.2" /><circle style="fill:#4d4d4d" cx="66" cy="60" r="5.7" /></g></svg>